REM DIRINDEX 1\2\6,1\2\7,1\2\8,1\2\9,1\3\10,1\3\11,1\4\12,1\4\13,1\4\14,1\5\15,1\5\16,1\5\17
REM DIRNAME folder01,folder02,folder03,folder04,folder05,folder06,folder07,folder08,folder09,folder10,folder11,folder12,folder13,folder14,folder15,folder16,folder17
TITLE ""
FILE "1900_2_sec09_0869_0885.mp3" MP3
  TRACK 01 AUDIO
    TITLE "0:"
    INDEX 01 00:00:00
  TRACK 02 AUDIO
    TITLE "13:cjc020_3859"
    INDEX 01 00:00:21
  TRACK 03 AUDIO
    TITLE "0:"
    INDEX 01 00:01:22
  TRACK 04 AUDIO
    TITLE "14:cjc020_3860"
    INDEX 01 00:01:26
  TRACK 05 AUDIO
    TITLE "0:"
    INDEX 01 00:04:01
  TRACK 06 AUDIO
    TITLE "13:cjc020_3861"
    INDEX 01 00:04:52
  TRACK 07 AUDIO
    TITLE "0:"
    INDEX 01 00:05:46
  TRACK 08 AUDIO
    TITLE "14:cjc020_3862"
    INDEX 01 00:05:50
  TRACK 09 AUDIO
    TITLE "0:"
    INDEX 01 00:07:62
  TRACK 10 AUDIO
    TITLE "13:cjc020_3863"
    INDEX 01 00:08:42
  TRACK 11 AUDIO
    TITLE "0:"
    INDEX 01 00:09:47
  TRACK 12 AUDIO
    TITLE "14:cjc020_3864"
    INDEX 01 00:09:51
  TRACK 13 AUDIO
    TITLE "0:"
    INDEX 01 00:12:71
  TRACK 14 AUDIO
    TITLE "13:cjc020_3865"
    INDEX 01 00:13:51
  TRACK 15 AUDIO
    TITLE "0:"
    INDEX 01 00:14:53
  TRACK 16 AUDIO
    TITLE "14:cjc020_3866"
    INDEX 01 00:14:56
  TRACK 17 AUDIO
    TITLE "0:"
    INDEX 01 00:17:02
  TRACK 18 AUDIO
    TITLE "13:cjc020_3867"
    INDEX 01 00:17:55
  TRACK 19 AUDIO
    TITLE "0:"
    INDEX 01 00:18:58
  TRACK 20 AUDIO
    TITLE "14:cjc020_3868"
    INDEX 01 00:18:66
  TRACK 21 AUDIO
    TITLE "0:"
    INDEX 01 00:23:16
  TRACK 22 AUDIO
    TITLE "13:cjc020_3869"
    INDEX 01 00:23:73
  TRACK 23 AUDIO
    TITLE "0:"
    INDEX 01 00:25:07
  TRACK 24 AUDIO
    TITLE "14:cjc020_3870"
    INDEX 01 00:25:11
  TRACK 25 AUDIO
    TITLE "0:"
    INDEX 01 00:28:62
  TRACK 26 AUDIO
    TITLE "13:cjc020_3871"
    INDEX 01 00:29:42
  TRACK 27 AUDIO
    TITLE "0:"
    INDEX 01 00:30:38
  TRACK 28 AUDIO
    TITLE "14:cjc020_3872"
    INDEX 01 00:30:40
  TRACK 29 AUDIO
    TITLE "0:"
    INDEX 01 00:33:07
  TRACK 30 AUDIO
    TITLE "13:cjc020_3873"
    INDEX 01 00:33:64
  TRACK 31 AUDIO
    TITLE "0:"
    INDEX 01 00:34:55
  TRACK 32 AUDIO
    TITLE "14:cjc020_3874"
    INDEX 01 00:34:61
  TRACK 33 AUDIO
    TITLE "0:"
    INDEX 01 00:36:70
  TRACK 34 AUDIO
    TITLE "13:cjc020_3875"
    INDEX 01 00:37:52
  TRACK 35 AUDIO
    TITLE "0:"
    INDEX 01 00:38:73
  TRACK 36 AUDIO
    TITLE "14:cjc020_3876"
    INDEX 01 00:39:00
  TRACK 37 AUDIO
    TITLE "0:"
    INDEX 01 00:42:49
  TRACK 38 AUDIO
    TITLE "13:cjc020_3877"
    INDEX 01 00:43:31
  TRACK 39 AUDIO
    TITLE "0:"
    INDEX 01 00:44:40
  TRACK 40 AUDIO
    TITLE "14:cjc020_3878"
    INDEX 01 00:44:42
  TRACK 41 AUDIO
    TITLE "0:"
    INDEX 01 00:47:70
  TRACK 42 AUDIO
    TITLE "12:cjc020_3879"
    INDEX 01 00:49:45
  TRACK 43 AUDIO
    TITLE "0:"
    INDEX 01 00:51:16
  TRACK 44 AUDIO
    TITLE "13:cjc020_3880"
    INDEX 01 00:52:14
  TRACK 45 AUDIO
    TITLE "0:"
    INDEX 01 00:53:19
  TRACK 46 AUDIO
    TITLE "14:cjc020_3881"
    INDEX 01 00:53:23
  TRACK 47 AUDIO
    TITLE "0:"
    INDEX 01 00:55:67
  TRACK 48 AUDIO
    TITLE "13:cjc020_3882"
    INDEX 01 00:56:47
  TRACK 49 AUDIO
    TITLE "0:"
    INDEX 01 00:57:52
  TRACK 50 AUDIO
    TITLE "14:cjc020_3883"
    INDEX 01 00:57:54
  TRACK 51 AUDIO
    TITLE "0:"
    INDEX 01 01:00:29
  TRACK 52 AUDIO
    TITLE "13:cjc020_3884"
    INDEX 01 01:01:07
  TRACK 53 AUDIO
    TITLE "0:"
    INDEX 01 01:02:16
  TRACK 54 AUDIO
    TITLE "14:cjc020_3885"
    INDEX 01 01:02:20
  TRACK 55 AUDIO
    TITLE "0:"
    INDEX 01 01:04:64
  TRACK 56 AUDIO
    TITLE "13:cjc020_3886"
    INDEX 01 01:05:42
  TRACK 57 AUDIO
    TITLE "0:"
    INDEX 01 01:06:38
  TRACK 58 AUDIO
    TITLE "14:cjc020_3887"
    INDEX 01 01:06:42
  TRACK 59 AUDIO
    TITLE "0:"
    INDEX 01 01:09:16
  TRACK 60 AUDIO
    TITLE "13:cjc020_3888"
    INDEX 01 01:09:69
  TRACK 61 AUDIO
    TITLE "0:"
    INDEX 01 01:11:05
  TRACK 62 AUDIO
    TITLE "14:cjc020_3889"
    INDEX 01 01:11:07
  TRACK 63 AUDIO
    TITLE "0:"
    INDEX 01 01:13:49
  TRACK 64 AUDIO
    TITLE "13:cjc020_3890"
    INDEX 01 01:14:29
  TRACK 65 AUDIO
    TITLE "0:"
    INDEX 01 01:15:40
  TRACK 66 AUDIO
    TITLE "14:cjc020_3891"
    INDEX 01 01:15:44
  TRACK 67 AUDIO
    TITLE "0:"
    INDEX 01 01:18:23
  TRACK 68 AUDIO
    TITLE "13:cjc020_3892"
    INDEX 01 01:19:03
  TRACK 69 AUDIO
    TITLE "0:"
    INDEX 01 01:20:04
  TRACK 70 AUDIO
    TITLE "14:cjc020_3893"
    INDEX 01 01:20:10
  TRACK 71 AUDIO
    TITLE "0:"
    INDEX 01 01:21:25
